<svg width="37" height="37" viewBox="0 0 37 37" fill="none" xmlns="http://www.w3.org/2000/svg">
<g clip-path="url(#clip0)">
<path d="M28.679 37H8.32094C6.51257 37 5.09069 35.4466 5.24956 33.6456L7.12677 12.3706C7.26822 10.7674 8.58858 9.55833 10.1982 9.55833H12.102V6.39792C12.102 2.87004 14.9721 0 18.5 0C22.0278 0 24.8979 2.87004 24.8979 6.39792V9.55833H26.8018C27.1423 9.55833 27.4184 9.83445 27.4184 10.175C27.4184 10.5156 27.1423 10.7917 26.8018 10.7917H24.8979V13.5667C24.8979 13.9072 24.6218 14.1833 24.2812 14.1833C23.9406 14.1833 23.6645 13.9072 23.6645 13.5667V10.7917H15.5708C15.2302 10.7917 14.9541 10.5156 14.9541 10.175C14.9541 9.83445 15.2302 9.55833 15.5708 9.55833H23.6645V6.39792C23.6645 3.55015 21.3477 1.23333 18.5 1.23333C15.6522 1.23333 13.3354 3.55015 13.3354 6.39792V13.5667C13.3354 13.9072 13.0593 14.1833 12.7187 14.1833C12.3781 14.1833 12.102 13.9072 12.102 13.5667V10.7917H10.1982C9.23245 10.7917 8.44019 11.5171 8.35532 12.4791L6.47811 33.7541C6.38245 34.838 7.23407 35.7667 8.32094 35.7667H28.679C29.7671 35.7667 30.6174 34.8367 30.5218 33.7541L28.6446 12.4791C28.6147 12.1399 28.8654 11.8405 29.2047 11.8106C29.5438 11.781 29.8432 12.0315 29.8731 12.3707L31.7503 33.6457C31.9093 35.4471 30.4869 37 28.679 37ZM14.9541 31.6812H10.4833C10.1427 31.6812 9.86662 31.9574 9.86662 32.2979C9.86662 32.6385 10.1427 32.9146 10.4833 32.9146H14.9541C15.2947 32.9146 15.5708 32.6385 15.5708 32.2979C15.5708 31.9574 15.2947 31.6812 14.9541 31.6812ZM14.9541 28.5979H10.4833C10.1427 28.5979 9.86662 28.874 9.86662 29.2146C9.86662 29.5551 10.1427 29.8313 10.4833 29.8313H14.9541C15.2947 29.8313 15.5708 29.5551 15.5708 29.2146C15.5708 28.874 15.2947 28.5979 14.9541 28.5979Z" fill="black"/>
</g>
<defs>
<clipPath id="clip0">
<rect width="37" height="37" fill="white"/>
</clipPath>
</defs>
</svg>
