<svg width="37" height="37" viewBox="0 0 37 37" fill="none" xmlns="http://www.w3.org/2000/svg">
<path d="M32.375 32.375L23.125 23.125L32.375 32.375ZM26.2083 15.4167C26.2083 16.8338 25.9292 18.2372 25.3869 19.5465C24.8445 20.8558 24.0496 22.0454 23.0475 23.0475C22.0454 24.0496 20.8558 24.8445 19.5465 25.3869C18.2372 25.9292 16.8338 26.2083 15.4167 26.2083C13.9995 26.2083 12.5962 25.9292 11.2869 25.3869C9.97757 24.8445 8.7879 24.0496 7.78581 23.0475C6.78371 22.0454 5.9888 20.8558 5.44647 19.5465C4.90413 18.2372 4.625 16.8338 4.625 15.4167C4.625 12.5545 5.76198 9.80964 7.78581 7.78581C9.80964 5.76198 12.5545 4.625 15.4167 4.625C18.2788 4.625 21.0237 5.76198 23.0475 7.78581C25.0714 9.80964 26.2083 12.5545 26.2083 15.4167Z" stroke="#3F3F3F" stroke-width="2" stroke-linecap="round" stroke-linejoin="round"/>
</svg>
